<svg width="392" height="392" viewBox="0 0 392 392" fill="none" xmlns="http://www.w3.org/2000/svg">
<path d="M196 0C304.248 0 392 87.7522 392 196C392 304.248 304.248 392 196 392C87.7522 392 0 304.248 0 196C0 87.7522 87.7522 0 196 0ZM211.263 62.4707C196.493 61.7707 181.642 61.9307 166.853 62.4307C145.123 63.1707 125.353 69.4213 107.933 83.2412C83.1826 102.861 84.5424 136.811 108.982 154.401C122.012 163.771 136.062 171.342 151.242 176.312C170.242 182.532 189.632 187.541 208.742 193.421C221.842 197.451 234.912 201.661 247.692 206.571C255.812 209.691 256.472 214.211 250.072 219.841C233.072 234.791 215.822 249.451 198.662 264.211C195.112 267.261 191.592 267.151 187.872 264.291C161.652 244.121 135.372 224.041 109.172 203.841C103.042 199.121 97.1824 194.061 90.4727 188.571V329.801H135.723C131.653 317.011 126.942 304.611 123.862 291.812C120.772 278.982 119.212 265.771 117.272 252.691C117.042 251.141 118.253 248.421 119.513 247.871C120.803 247.301 123.013 248.641 124.732 249.341C125.452 249.641 125.972 250.431 126.572 251.011C145.362 269.211 164.143 287.411 182.933 305.611C183.973 306.611 185.083 307.531 186.183 308.511C189.002 306.151 191.572 304.061 194.082 301.881C214.442 284.201 234.763 266.462 255.223 248.892C256.763 247.572 259.303 247.421 261.383 246.731C261.983 248.661 263.403 250.761 263.053 252.501C260.143 266.911 257.473 281.411 253.603 295.571C250.403 307.281 245.662 318.581 241.832 329.441H301.103C301.103 314.152 301.212 299.671 301.082 285.191C300.862 259.881 300.792 234.551 300.032 209.251C299.702 198.201 295.252 188.481 285.502 182.271C280.212 178.902 274.722 175.551 268.872 173.421C241.692 163.511 214.342 154.091 187.103 144.352C175.443 140.182 163.112 137.241 153.582 128.651C146.102 121.911 139.822 114.241 142.192 103.171C144.422 92.741 151.732 86.7407 161.402 83.4707C172.022 79.8808 182.922 80.2812 193.962 81.2412C212.812 82.8812 230.382 87.9312 246.072 98.7812C259.712 108.211 269.762 121.071 279.822 133.931C284.482 139.881 289.242 145.752 294.672 152.562C295.412 150.352 296.092 149.231 296.122 148.102C296.522 134.112 297.223 120.121 297.053 106.142C296.883 92.3816 290.912 82.2016 277.502 76.6016C256.252 67.7317 234.043 63.5607 211.263 62.4707Z" fill="#DBDBDB"/>
</svg>
