<svg width="696" height="758" viewBox="0 0 696 758" fill="none" xmlns="http://www.w3.org/2000/svg">
<path d="M210.155 19.4385C243.133 3.96081 277.778 -1.58686 313.808 0.380859C340.664 1.84756 366.718 7.44055 391.606 17.7803C413.753 26.9813 433.567 39.7261 449.346 58.0371C460.241 70.6726 467.993 84.939 469.843 101.893C472.257 123.966 457.817 139.99 436.527 138.633C424.876 137.886 416.331 132.11 411.931 121.297C409.435 115.166 408.096 108.561 406.311 102.147C403.787 93.1013 401.81 83.8728 398.749 75.0088C387.571 42.6048 365.069 22.1437 331.809 14.2363C296.653 5.87354 262.318 9.02629 229.887 25.333C173.478 53.6924 156.989 133.687 205.545 182.37C220.777 197.647 238.46 209.38 257.882 218.153C286.059 230.889 314.947 242.076 343.16 254.748C364.168 264.186 385.02 274.143 405.153 285.284C432.592 300.47 454.42 321.716 467.42 350.831C490.723 403.049 479.982 471.246 437.22 511.585C428.884 519.447 419.237 525.924 410.109 532.911C407.486 534.915 404.552 536.509 401.127 538.695C416.259 575.244 431.298 611.566 446.339 647.888L448.079 647.778C451.778 637.94 455.485 628.092 459.175 618.253C482.742 555.504 506.301 492.745 529.859 429.996C547.132 383.991 564.395 337.994 581.658 291.989C584.865 283.444 584.865 283.408 593.984 283.408C610.382 283.408 626.78 283.398 643.178 283.508C645.938 283.526 649.163 282.625 652.06 286.451C649.254 287.481 647.232 288.492 645.082 288.975C631.272 292.063 623.008 300.953 621.505 314.563C620.056 327.746 619.155 341.302 620.558 354.42C626.534 410.237 633.348 465.971 640.071 521.706C646.466 574.726 652.989 627.728 659.857 680.684C660.932 688.992 663.356 697.354 666.59 705.098C671.045 715.756 679.49 722.498 691.104 724.839C692.498 725.121 693.793 725.942 695.104 726.57C695.259 726.644 695.213 727.136 695.396 728.265C693.692 728.775 691.907 729.676 690.058 729.822C662.71 731.99 593.856 730.624 586.021 727.518C587.825 726.379 589.055 725.104 590.504 724.767C608.587 720.567 612.504 709.398 613.716 696.225C614.262 690.23 613.889 684.063 613.215 678.06C607.394 626.488 601.49 574.935 595.45 523.391C591.005 485.421 586.186 447.487 581.786 409.508C579.244 387.553 577.194 365.534 574.926 343.543C574.516 343.443 574.106 343.334 573.696 343.233L573.705 343.242C569.077 355.067 564.285 366.837 559.84 378.726C524.657 472.767 489.557 566.845 454.393 660.905C448.125 677.667 441.811 694.421 435.298 711.092C434.405 713.387 432.583 716.202 430.516 716.968C426.152 718.589 424.23 715.31 422.727 711.557C414.965 692.116 407.093 672.721 399.149 653.354C386.614 622.762 373.997 592.189 361.38 561.625C360.596 559.721 359.558 557.917 358.41 555.604C340.145 560.213 321.807 562.882 303.313 562.399C285.203 561.926 267.129 559.994 249.137 558.71C246.513 584.354 243.862 610.227 241.156 636.719C312.323 645.792 343.106 692.517 354.721 757.016C354.165 757.344 353.618 757.671 353.062 757.999C352.024 755.002 350.922 752.023 349.947 749.008C344.436 731.899 337.612 715.383 327.782 700.261C310.756 674.042 287.935 655.558 257.116 648.006C252.17 646.794 247.05 646.247 241.512 645.3C240.856 648.179 239.944 650.466 239.862 652.771C239.443 665.798 238.797 678.852 239.134 691.87C239.27 697.172 241.147 702.62 243.169 707.621C246.394 715.601 252.48 720.958 260.761 723.646C263.539 724.547 266.318 725.45 269.598 726.516C268.049 730.506 265.078 729.859 262.628 729.877C248.052 729.986 233.476 730.059 218.909 730.041C208.287 730.032 197.656 729.931 187.034 729.722C184.565 729.676 182.105 729.057 179.637 728.692C179.582 728.046 179.536 727.39 179.481 726.743C181.231 726.023 182.925 725.039 184.738 724.62C198.485 721.486 207.986 713.233 213.698 700.543C221.496 683.225 224.239 664.668 227.555 645.765C218.226 644.043 210 646.539 201.729 647.806C178.954 651.295 156.279 655.667 133.395 658.19C123.383 659.293 112.624 658.1 102.812 655.567C74.9999 648.38 62.7383 621.305 67.1475 600.762C67.9765 596.908 68.5318 592.981 69.543 589.183C73.8974 572.721 70.4814 559.193 55.3135 549.755C50.6127 546.831 46.3492 543.296 45.6113 537.247C44.7095 529.859 46.7409 523.4 52.2705 518.271C54.2474 516.44 56.4797 514.883 58.748 513.088C54.3024 510.738 49.8379 508.952 46.0117 506.265C36.0547 499.268 34.0323 490.049 39.5801 479.181C41.648 475.136 44.1171 471.246 45.7842 467.046C51.7785 451.923 47.4238 441.055 32.8389 434.077C27.6372 431.59 22.0896 429.695 17.2432 426.652C12.7064 423.801 8.16925 420.358 4.94434 416.158C-0.867805 408.579 -1.88812 399.988 3.66895 391.579C6.50211 387.288 9.49073 383.034 12.9434 379.244C31.2086 359.221 47.5156 337.803 61.3262 314.418C73.424 293.93 79.1997 272.385 77.0498 248.371C74.2348 216.969 76.3668 185.804 87.1074 155.823C100.882 117.379 122.937 84.2919 153.601 57.29C170.718 42.2223 189.312 29.2316 210.155 19.4385ZM145.475 80.7393C137.822 92.3544 129.359 103.532 122.654 115.676C100.144 156.425 91.5528 200.326 96.208 246.531C98.6767 271.009 93.894 293.338 82.0967 314.801C70.2993 336.255 55.1944 355.149 39.4434 373.651C34.1415 379.882 28.5574 385.95 23.875 392.627C16.8057 402.693 18.2451 411.129 28.1201 418.645C32.6659 422.106 37.8949 424.721 42.9326 427.481C46.3853 429.367 50.13 430.716 53.6191 432.547C67.9214 440.044 72.5767 452.671 66.4004 467.602C64.788 471.5 62.5376 475.154 60.4697 478.861C53.3366 491.679 55.3957 498.557 68.5322 505.335C72.413 507.339 76.3758 509.189 80.9033 511.402C78.1703 514.318 76.3568 516.303 74.4893 518.234C72.3849 520.421 70.0534 522.407 68.1221 524.739C62.1004 532.027 62.6284 538.277 69.7158 544.535C71.7564 546.339 74.0066 547.906 76.1748 549.573C86.6968 557.636 91.1423 568.467 90.0947 581.467C89.5846 587.798 88.4007 594.093 87.1436 600.324C82.2971 624.247 95.8342 644.927 121.005 649.801C130.37 651.614 140.491 652.114 149.893 650.702C175.947 646.794 201.811 641.556 228.676 636.673C232.265 610.09 235.891 583.216 239.544 556.087C236.374 555.167 233.477 554.328 230.589 553.472C210.174 547.405 190.259 540.171 172.058 528.839C154.639 517.989 138.779 505.317 127.182 488.172C117.935 474.507 110.183 460.086 110.875 442.731C111.531 426.398 121.57 414.291 136.564 411.922C151.669 409.535 164.623 417.935 169.771 433.923C172.458 442.286 174.416 450.877 176.767 459.349C184.319 486.514 198.676 509.18 221.323 526.279C227.564 530.989 234.014 535.416 241.912 538.268C242.34 536.227 242.769 534.806 242.933 533.349C244.572 518.873 246.066 504.388 247.797 489.931C253.445 442.632 259.112 395.342 264.97 348.07C265.416 344.481 265.024 341.629 263.057 338.678C255.067 326.707 245.902 315.903 233.74 307.914C231.691 306.566 229.814 304.971 227.855 303.495C229.687 302.621 230.898 302.639 231.955 303.049C249.209 309.699 266.564 316.113 283.636 323.2C295.597 328.165 305.326 336.492 313.789 346.212C324.439 358.447 332.693 372.157 338.806 387.188C355.368 427.928 371.993 468.641 388.637 509.344C390.45 513.771 392.536 518.089 395.196 524.02L395.251 524.038C400.17 518.882 404.152 515.165 407.613 511.011C420.795 495.196 428.165 476.712 431.144 456.552C436.436 420.759 429.331 388.272 403.859 361.279C391.434 348.106 376.493 337.949 360.433 330.051C334.059 317.087 307.167 305.126 280.274 293.237C253.072 281.221 225.733 269.633 200.617 253.399C179.601 239.817 161.626 223.437 149.829 201.091C130.279 164.041 130.561 126.079 145.128 87.5713C145.875 85.5945 146.513 83.5721 147.196 81.5771C146.622 81.2948 146.048 81.0125 145.475 80.7393ZM273.979 357.964C268.851 400.38 263.912 441.302 258.938 482.224C257.007 498.175 255.03 514.117 253.008 530.06C252.744 532.146 252.598 534.505 251.505 536.163C250.639 537.475 248.435 537.912 246.686 538.796C261.216 553.773 324.239 556.415 353.719 543.388L353.728 543.378C352.725 540.654 351.787 537.848 350.676 535.115C332.665 491.078 314.764 446.995 296.508 403.058C290.933 389.648 284.373 376.639 278.16 363.493C277.377 361.826 275.911 360.487 273.979 357.964Z" fill="url(#paint0_linear_17_190)" fill-opacity="0.8"/>
<path d="M210.155 19.4385C243.133 3.96081 277.778 -1.58686 313.808 0.380859C340.664 1.84756 366.718 7.44055 391.606 17.7803C413.753 26.9813 433.567 39.7261 449.346 58.0371C460.241 70.6726 467.993 84.939 469.843 101.893C472.257 123.966 457.817 139.99 436.527 138.633C424.876 137.886 416.331 132.11 411.931 121.297C409.435 115.166 408.096 108.561 406.311 102.147C403.787 93.1013 401.81 83.8728 398.749 75.0088C387.571 42.6048 365.069 22.1437 331.809 14.2363C296.653 5.87354 262.318 9.02629 229.887 25.333C173.478 53.6924 156.989 133.687 205.545 182.37C220.777 197.647 238.46 209.38 257.882 218.153C286.059 230.889 314.947 242.076 343.16 254.748C364.168 264.186 385.02 274.143 405.153 285.284C432.592 300.47 454.42 321.716 467.42 350.831C490.723 403.049 479.982 471.246 437.22 511.585C428.884 519.447 419.237 525.924 410.109 532.911C407.486 534.915 404.552 536.509 401.127 538.695C416.259 575.244 431.298 611.566 446.339 647.888L448.079 647.778C451.778 637.94 455.485 628.092 459.175 618.253C482.742 555.504 506.301 492.745 529.859 429.996C547.132 383.991 564.395 337.994 581.658 291.989C584.865 283.444 584.865 283.408 593.984 283.408C610.382 283.408 626.78 283.398 643.178 283.508C645.938 283.526 649.163 282.625 652.06 286.451C649.254 287.481 647.232 288.492 645.082 288.975C631.272 292.063 623.008 300.953 621.505 314.563C620.056 327.746 619.155 341.302 620.558 354.42C626.534 410.237 633.348 465.971 640.071 521.706C646.466 574.726 652.989 627.728 659.857 680.684C660.932 688.992 663.356 697.354 666.59 705.098C671.045 715.756 679.49 722.498 691.104 724.839C692.498 725.121 693.793 725.942 695.104 726.57C695.259 726.644 695.213 727.136 695.396 728.265C693.692 728.775 691.907 729.676 690.058 729.822C662.71 731.99 593.856 730.624 586.021 727.518C587.825 726.379 589.055 725.104 590.504 724.767C608.587 720.567 612.504 709.398 613.716 696.225C614.262 690.23 613.889 684.063 613.215 678.06C607.394 626.488 601.49 574.935 595.45 523.391C591.005 485.421 586.186 447.487 581.786 409.508C579.244 387.553 577.194 365.534 574.926 343.543C574.516 343.443 574.106 343.334 573.696 343.233L573.705 343.242C569.077 355.067 564.285 366.837 559.84 378.726C524.657 472.767 489.557 566.845 454.393 660.905C448.125 677.667 441.811 694.421 435.298 711.092C434.405 713.387 432.583 716.202 430.516 716.968C426.152 718.589 424.23 715.31 422.727 711.557C414.965 692.116 407.093 672.721 399.149 653.354C386.614 622.762 373.997 592.189 361.38 561.625C360.596 559.721 359.558 557.917 358.41 555.604C340.145 560.213 321.807 562.882 303.313 562.399C285.203 561.926 267.129 559.994 249.137 558.71C246.513 584.354 243.862 610.227 241.156 636.719C312.323 645.792 343.106 692.517 354.721 757.016C354.165 757.344 353.618 757.671 353.062 757.999C352.024 755.002 350.922 752.023 349.947 749.008C344.436 731.899 337.612 715.383 327.782 700.261C310.756 674.042 287.935 655.558 257.116 648.006C252.17 646.794 247.05 646.247 241.512 645.3C240.856 648.179 239.944 650.466 239.862 652.771C239.443 665.798 238.797 678.852 239.134 691.87C239.27 697.172 241.147 702.62 243.169 707.621C246.394 715.601 252.48 720.958 260.761 723.646C263.539 724.547 266.318 725.45 269.598 726.516C268.049 730.506 265.078 729.859 262.628 729.877C248.052 729.986 233.476 730.059 218.909 730.041C208.287 730.032 197.656 729.931 187.034 729.722C184.565 729.676 182.105 729.057 179.637 728.692C179.582 728.046 179.536 727.39 179.481 726.743C181.231 726.023 182.925 725.039 184.738 724.62C198.485 721.486 207.986 713.233 213.698 700.543C221.496 683.225 224.239 664.668 227.555 645.765C218.226 644.043 210 646.539 201.729 647.806C178.954 651.295 156.279 655.667 133.395 658.19C123.383 659.293 112.624 658.1 102.812 655.567C74.9999 648.38 62.7383 621.305 67.1475 600.762C67.9765 596.908 68.5318 592.981 69.543 589.183C73.8974 572.721 70.4814 559.193 55.3135 549.755C50.6127 546.831 46.3492 543.296 45.6113 537.247C44.7095 529.859 46.7409 523.4 52.2705 518.271C54.2474 516.44 56.4797 514.883 58.748 513.088C54.3024 510.738 49.8379 508.952 46.0117 506.265C36.0547 499.268 34.0323 490.049 39.5801 479.181C41.648 475.136 44.1171 471.246 45.7842 467.046C51.7785 451.923 47.4238 441.055 32.8389 434.077C27.6372 431.59 22.0896 429.695 17.2432 426.652C12.7064 423.801 8.16925 420.358 4.94434 416.158C-0.867805 408.579 -1.88812 399.988 3.66895 391.579C6.50211 387.288 9.49073 383.034 12.9434 379.244C31.2086 359.221 47.5156 337.803 61.3262 314.418C73.424 293.93 79.1997 272.385 77.0498 248.371C74.2348 216.969 76.3668 185.804 87.1074 155.823C100.882 117.379 122.937 84.2919 153.601 57.29C170.718 42.2223 189.312 29.2316 210.155 19.4385ZM145.475 80.7393C137.822 92.3544 129.359 103.532 122.654 115.676C100.144 156.425 91.5528 200.326 96.208 246.531C98.6767 271.009 93.894 293.338 82.0967 314.801C70.2993 336.255 55.1944 355.149 39.4434 373.651C34.1415 379.882 28.5574 385.95 23.875 392.627C16.8057 402.693 18.2451 411.129 28.1201 418.645C32.6659 422.106 37.8949 424.721 42.9326 427.481C46.3853 429.367 50.13 430.716 53.6191 432.547C67.9214 440.044 72.5767 452.671 66.4004 467.602C64.788 471.5 62.5376 475.154 60.4697 478.861C53.3366 491.679 55.3957 498.557 68.5322 505.335C72.413 507.339 76.3758 509.189 80.9033 511.402C78.1703 514.318 76.3568 516.303 74.4893 518.234C72.3849 520.421 70.0534 522.407 68.1221 524.739C62.1004 532.027 62.6284 538.277 69.7158 544.535C71.7564 546.339 74.0066 547.906 76.1748 549.573C86.6968 557.636 91.1423 568.467 90.0947 581.467C89.5846 587.798 88.4007 594.093 87.1436 600.324C82.2971 624.247 95.8342 644.927 121.005 649.801C130.37 651.614 140.491 652.114 149.893 650.702C175.947 646.794 201.811 641.556 228.676 636.673C232.265 610.09 235.891 583.216 239.544 556.087C236.374 555.167 233.477 554.328 230.589 553.472C210.174 547.405 190.259 540.171 172.058 528.839C154.639 517.989 138.779 505.317 127.182 488.172C117.935 474.507 110.183 460.086 110.875 442.731C111.531 426.398 121.57 414.291 136.564 411.922C151.669 409.535 164.623 417.935 169.771 433.923C172.458 442.286 174.416 450.877 176.767 459.349C184.319 486.514 198.676 509.18 221.323 526.279C227.564 530.989 234.014 535.416 241.912 538.268C242.34 536.227 242.769 534.806 242.933 533.349C244.572 518.873 246.066 504.388 247.797 489.931C253.445 442.632 259.112 395.342 264.97 348.07C265.416 344.481 265.024 341.629 263.057 338.678C255.067 326.707 245.902 315.903 233.74 307.914C231.691 306.566 229.814 304.971 227.855 303.495C229.687 302.621 230.898 302.639 231.955 303.049C249.209 309.699 266.564 316.113 283.636 323.2C295.597 328.165 305.326 336.492 313.789 346.212C324.439 358.447 332.693 372.157 338.806 387.188C355.368 427.928 371.993 468.641 388.637 509.344C390.45 513.771 392.536 518.089 395.196 524.02L395.251 524.038C400.17 518.882 404.152 515.165 407.613 511.011C420.795 495.196 428.165 476.712 431.144 456.552C436.436 420.759 429.331 388.272 403.859 361.279C391.434 348.106 376.493 337.949 360.433 330.051C334.059 317.087 307.167 305.126 280.274 293.237C253.072 281.221 225.733 269.633 200.617 253.399C179.601 239.817 161.626 223.437 149.829 201.091C130.279 164.041 130.561 126.079 145.128 87.5713C145.875 85.5945 146.513 83.5721 147.196 81.5771C146.622 81.2948 146.048 81.0125 145.475 80.7393ZM273.979 357.964C268.851 400.38 263.912 441.302 258.938 482.224C257.007 498.175 255.03 514.117 253.008 530.06C252.744 532.146 252.598 534.505 251.505 536.163C250.639 537.475 248.435 537.912 246.686 538.796C261.216 553.773 324.239 556.415 353.719 543.388L353.728 543.378C352.725 540.654 351.787 537.848 350.676 535.115C332.665 491.078 314.764 446.995 296.508 403.058C290.933 389.648 284.373 376.639 278.16 363.493C277.377 361.826 275.911 360.487 273.979 357.964Z" fill="url(#paint1_radial_17_190)" fill-opacity="0.3"/>
<defs>
<linearGradient id="paint0_linear_17_190" x1="768.982" y1="170.336" x2="-46.8125" y2="745.429" gradientUnits="userSpaceOnUse">
<stop stop-color="#7DFF00"/>
<stop offset="0.493887" stop-color="#D09999"/>
<stop offset="1" stop-color="#A1561C"/>
</linearGradient>
<radialGradient id="paint1_radial_17_190" cx="0" cy="0" r="1" gradientTransform="matrix(277.422 -1.26064e-05 8.86426 289.627 368.302 362.74)" gradientUnits="userSpaceOnUse">
<stop stop-color="#F7D5E8"/>
<stop offset="1" stop-color="#C372F2"/>
</radialGradient>
</defs>
</svg>
