<svg width="945" height="979" viewBox="0 0 945 979" fill="none" xmlns="http://www.w3.org/2000/svg">
<path d="M472.5 0C733.455 0 945 211.545 945 472.5V506.5C945 767.455 733.455 979 472.5 979C211.545 979 3.62594e-06 767.455 0 506.5V472.5C0 211.545 211.545 0 472.5 0ZM420.808 73.3809C384.778 71.4131 350.133 76.9618 317.155 92.4395C296.312 102.233 277.718 115.223 260.601 130.291C229.937 157.293 207.881 190.38 194.106 228.824C183.366 258.805 181.235 289.97 184.05 321.372C186.2 345.386 180.424 366.931 168.326 387.419C154.516 410.804 138.209 432.222 119.943 452.245C116.491 456.035 113.502 460.289 110.669 464.58C105.112 472.989 106.132 481.58 111.944 489.159C115.169 493.359 119.707 496.802 124.243 499.653C129.09 502.696 134.637 504.591 139.839 507.078C154.424 514.056 158.779 524.924 152.784 540.047C151.117 544.247 148.648 548.137 146.58 552.182C141.032 563.049 143.055 572.268 153.012 579.265C156.838 581.952 161.302 583.739 165.748 586.089C163.48 587.883 161.247 589.44 159.271 591.271C153.741 596.4 151.709 602.86 152.611 610.248C153.349 616.297 157.613 619.832 162.313 622.756C177.481 632.194 180.897 645.722 176.543 662.184C175.532 665.982 174.976 669.909 174.147 673.763C169.738 694.306 182 721.38 209.812 728.567C219.624 731.1 230.383 732.294 240.395 731.191C263.279 728.668 285.954 724.296 308.729 720.807C317 719.54 325.226 717.044 334.555 718.766C331.239 737.669 328.496 756.226 320.698 773.544C314.986 786.234 305.485 794.487 291.738 797.621C289.925 798.04 288.231 799.024 286.481 799.744C286.536 800.391 286.582 801.047 286.637 801.693C289.105 802.058 291.565 802.677 294.034 802.723C304.656 802.932 315.287 803.033 325.909 803.042C340.476 803.06 355.052 802.987 369.628 802.878C372.079 802.86 375.049 803.506 376.598 799.516C373.318 798.45 370.539 797.548 367.761 796.646C359.48 793.959 353.394 788.602 350.169 780.622C348.147 775.621 346.27 770.173 346.134 764.871C345.797 751.853 346.443 738.799 346.862 725.771C346.944 723.467 347.856 721.18 348.512 718.301C354.05 719.248 359.17 719.795 364.116 721.007C394.935 728.559 417.756 747.043 434.782 773.261C444.612 788.383 451.436 804.9 456.947 822.009C457.922 825.024 459.024 828.003 460.062 831C460.618 830.672 461.165 830.345 461.721 830.017C450.106 765.518 419.323 718.793 348.156 709.72C350.862 683.228 353.513 657.355 356.137 631.711C374.129 632.995 392.203 634.927 410.313 635.4C428.807 635.883 447.145 633.214 465.41 628.604C466.558 630.918 467.596 632.722 468.38 634.626C480.997 665.19 493.614 695.763 506.149 726.354C514.093 745.722 521.965 765.117 529.727 784.558C531.23 788.311 533.152 791.59 537.516 789.969C539.583 789.203 541.405 786.388 542.298 784.093C548.811 767.422 555.125 750.668 561.393 733.906C596.557 639.846 631.657 545.767 666.84 451.726C671.285 439.837 676.077 428.068 680.705 416.243L680.696 416.233C681.106 416.334 681.516 416.443 681.926 416.543C684.194 438.534 686.244 460.554 688.786 482.509C693.186 520.488 698.005 558.422 702.45 596.392C708.49 647.936 714.394 699.489 720.215 751.061C720.889 757.064 721.262 763.231 720.716 769.226C719.504 782.398 715.587 793.567 697.504 797.767C696.055 798.104 694.825 799.38 693.021 800.519C700.856 803.625 769.71 804.991 797.058 802.823C798.907 802.677 800.692 801.776 802.396 801.266C802.213 800.136 802.259 799.643 802.104 799.57C800.793 798.942 799.498 798.122 798.104 797.84C786.49 795.499 778.045 788.757 773.59 778.099C770.356 770.355 767.932 761.992 766.857 753.684C759.989 700.728 753.466 647.726 747.071 594.706C740.348 538.972 733.534 483.237 727.558 427.421C726.155 414.303 727.056 400.747 728.505 387.564C730.008 373.954 738.271 365.063 752.081 361.975C754.231 361.492 756.254 360.481 759.06 359.451C756.163 355.625 752.938 356.527 750.178 356.509C733.78 356.399 717.381 356.409 700.983 356.409C691.865 356.409 691.865 356.445 688.658 364.99C671.395 410.995 654.132 456.992 636.859 502.997C613.301 565.746 589.742 628.505 566.175 691.254C562.485 701.093 558.778 710.941 555.079 720.779L553.339 720.889C538.298 684.567 523.259 648.245 508.127 611.696C511.552 609.51 514.485 607.916 517.108 605.912C526.237 598.925 535.884 592.447 544.22 584.585C586.982 544.246 597.723 476.049 574.42 423.831C561.42 394.716 539.592 373.471 512.153 358.285C492.02 347.144 471.168 337.187 450.16 327.749C421.947 315.077 393.059 303.89 364.882 291.154C345.459 282.381 327.777 270.647 312.545 255.37C263.989 206.687 280.478 126.692 336.887 98.333C369.318 82.0263 403.653 78.8745 438.809 87.2373C472.069 95.1447 494.571 115.606 505.749 148.01C508.81 156.874 510.786 166.102 513.31 175.148C515.095 181.562 516.435 188.166 518.931 194.297C523.331 205.11 531.876 210.887 543.527 211.634C564.817 212.991 579.257 196.967 576.843 174.894C574.993 157.94 567.241 143.674 556.346 131.038C540.567 112.727 520.753 99.9823 498.606 90.7812C473.718 80.4415 447.664 74.8476 420.808 73.3809ZM254.196 154.578C253.513 156.573 252.875 158.595 252.128 160.572C237.561 199.08 237.279 237.041 256.829 274.091C268.626 296.437 286.601 312.817 307.617 326.4C332.733 342.634 360.072 354.222 387.274 366.238C414.167 378.127 441.059 390.088 467.433 403.052C483.493 410.95 498.434 421.107 510.859 434.28C536.331 461.273 543.436 493.759 538.144 529.552C535.165 549.712 527.794 568.197 514.612 584.012C511.151 588.166 507.17 591.882 502.251 597.038L502.196 597.021C499.536 591.09 497.45 586.771 495.637 582.344C478.993 541.641 462.367 500.929 445.806 460.189C439.693 445.158 431.439 431.448 420.789 419.213C412.326 409.493 402.597 401.166 390.636 396.201C373.564 389.114 356.209 382.7 338.955 376.05C337.898 375.64 336.687 375.622 334.855 376.496C336.814 377.972 338.691 379.566 340.74 380.914C352.902 388.903 362.067 399.708 370.057 411.679C372.024 414.63 372.416 417.482 371.97 421.071C366.112 468.343 360.445 515.632 354.797 562.931C353.066 577.388 351.572 591.873 349.933 606.349C349.769 607.806 349.34 609.228 348.912 611.269C341.014 608.417 334.564 603.989 328.323 599.279C305.676 582.18 291.319 559.514 283.767 532.349C281.416 523.877 279.458 515.286 276.771 506.923C271.623 490.935 258.669 482.536 243.564 484.923C228.57 487.292 218.531 499.398 217.875 515.732C217.183 533.087 224.935 547.508 234.182 561.173C245.779 578.318 261.639 590.99 279.057 601.84C297.258 613.173 317.173 620.405 337.589 626.473C340.477 627.329 343.374 628.167 346.544 629.087C342.891 656.216 339.265 683.091 335.676 709.674C308.811 714.557 282.947 719.795 256.893 723.703C247.491 725.115 237.37 724.614 228.005 722.801C202.834 717.927 189.297 697.248 194.144 673.325C195.401 667.094 196.585 660.799 197.095 654.468C198.142 641.468 193.697 630.637 183.175 622.574C181.007 620.907 178.756 619.34 176.716 617.536C169.628 611.278 169.1 605.028 175.122 597.74C177.053 595.408 179.385 593.422 181.489 591.235C183.357 589.304 185.17 587.319 187.903 584.403C183.376 582.19 179.413 580.34 175.532 578.336C162.396 571.558 160.337 564.68 167.47 551.862C169.538 548.155 171.788 544.502 173.4 540.603C179.577 525.672 174.921 513.045 160.619 505.548C157.13 503.717 153.385 502.368 149.933 500.482C144.895 497.722 139.666 495.107 135.12 491.646C125.245 484.13 123.806 475.694 130.875 465.628C135.558 458.95 141.141 452.883 146.443 446.651C162.194 428.149 177.299 409.256 189.097 387.802C200.894 366.339 205.677 344.01 203.208 319.531C198.553 273.326 207.144 229.425 229.654 188.677C236.359 176.533 244.822 165.355 252.475 153.74C253.048 154.013 253.622 154.296 254.196 154.578ZM380.979 430.965C382.911 433.488 384.377 434.827 385.16 436.494C391.373 449.64 397.933 462.649 403.508 476.059C421.764 519.996 439.665 564.079 457.676 608.116C458.787 610.849 459.725 613.655 460.728 616.379L460.719 616.388C431.239 629.415 368.216 626.774 353.686 611.797C355.435 610.913 357.639 610.476 358.505 609.164C359.598 607.506 359.744 605.147 360.008 603.061C362.03 587.118 364.007 571.175 365.938 555.224C370.912 514.302 375.851 473.38 380.979 430.965Z" fill="url(#paint0_linear_13_102)"/>
<path d="M472.5 0C733.455 0 945 211.545 945 472.5V506.5C945 767.455 733.455 979 472.5 979C211.545 979 3.62594e-06 767.455 0 506.5V472.5C0 211.545 211.545 0 472.5 0ZM420.808 73.3809C384.778 71.4131 350.133 76.9618 317.155 92.4395C296.312 102.233 277.718 115.223 260.601 130.291C229.937 157.293 207.881 190.38 194.106 228.824C183.366 258.805 181.235 289.97 184.05 321.372C186.2 345.386 180.424 366.931 168.326 387.419C154.516 410.804 138.209 432.222 119.943 452.245C116.491 456.035 113.502 460.289 110.669 464.58C105.112 472.989 106.132 481.58 111.944 489.159C115.169 493.359 119.707 496.802 124.243 499.653C129.09 502.696 134.637 504.591 139.839 507.078C154.424 514.056 158.779 524.924 152.784 540.047C151.117 544.247 148.648 548.137 146.58 552.182C141.032 563.049 143.055 572.268 153.012 579.265C156.838 581.952 161.302 583.739 165.748 586.089C163.48 587.883 161.247 589.44 159.271 591.271C153.741 596.4 151.709 602.86 152.611 610.248C153.349 616.297 157.613 619.832 162.313 622.756C177.481 632.194 180.897 645.722 176.543 662.184C175.532 665.982 174.976 669.909 174.147 673.763C169.738 694.306 182 721.38 209.812 728.567C219.624 731.1 230.383 732.294 240.395 731.191C263.279 728.668 285.954 724.296 308.729 720.807C317 719.54 325.226 717.044 334.555 718.766C331.239 737.669 328.496 756.226 320.698 773.544C314.986 786.234 305.485 794.487 291.738 797.621C289.925 798.04 288.231 799.024 286.481 799.744C286.536 800.391 286.582 801.047 286.637 801.693C289.105 802.058 291.565 802.677 294.034 802.723C304.656 802.932 315.287 803.033 325.909 803.042C340.476 803.06 355.052 802.987 369.628 802.878C372.079 802.86 375.049 803.506 376.598 799.516C373.318 798.45 370.539 797.548 367.761 796.646C359.48 793.959 353.394 788.602 350.169 780.622C348.147 775.621 346.27 770.173 346.134 764.871C345.797 751.853 346.443 738.799 346.862 725.771C346.944 723.467 347.856 721.18 348.512 718.301C354.05 719.248 359.17 719.795 364.116 721.007C394.935 728.559 417.756 747.043 434.782 773.261C444.612 788.383 451.436 804.9 456.947 822.009C457.922 825.024 459.024 828.003 460.062 831C460.618 830.672 461.165 830.345 461.721 830.017C450.106 765.518 419.323 718.793 348.156 709.72C350.862 683.228 353.513 657.355 356.137 631.711C374.129 632.995 392.203 634.927 410.313 635.4C428.807 635.883 447.145 633.214 465.41 628.604C466.558 630.918 467.596 632.722 468.38 634.626C480.997 665.19 493.614 695.763 506.149 726.354C514.093 745.722 521.965 765.117 529.727 784.558C531.23 788.311 533.152 791.59 537.516 789.969C539.583 789.203 541.405 786.388 542.298 784.093C548.811 767.422 555.125 750.668 561.393 733.906C596.557 639.846 631.657 545.767 666.84 451.726C671.285 439.837 676.077 428.068 680.705 416.243L680.696 416.233C681.106 416.334 681.516 416.443 681.926 416.543C684.194 438.534 686.244 460.554 688.786 482.509C693.186 520.488 698.005 558.422 702.45 596.392C708.49 647.936 714.394 699.489 720.215 751.061C720.889 757.064 721.262 763.231 720.716 769.226C719.504 782.398 715.587 793.567 697.504 797.767C696.055 798.104 694.825 799.38 693.021 800.519C700.856 803.625 769.71 804.991 797.058 802.823C798.907 802.677 800.692 801.776 802.396 801.266C802.213 800.136 802.259 799.643 802.104 799.57C800.793 798.942 799.498 798.122 798.104 797.84C786.49 795.499 778.045 788.757 773.59 778.099C770.356 770.355 767.932 761.992 766.857 753.684C759.989 700.728 753.466 647.726 747.071 594.706C740.348 538.972 733.534 483.237 727.558 427.421C726.155 414.303 727.056 400.747 728.505 387.564C730.008 373.954 738.271 365.063 752.081 361.975C754.231 361.492 756.254 360.481 759.06 359.451C756.163 355.625 752.938 356.527 750.178 356.509C733.78 356.399 717.381 356.409 700.983 356.409C691.865 356.409 691.865 356.445 688.658 364.99C671.395 410.995 654.132 456.992 636.859 502.997C613.301 565.746 589.742 628.505 566.175 691.254C562.485 701.093 558.778 710.941 555.079 720.779L553.339 720.889C538.298 684.567 523.259 648.245 508.127 611.696C511.552 609.51 514.485 607.916 517.108 605.912C526.237 598.925 535.884 592.447 544.22 584.585C586.982 544.246 597.723 476.049 574.42 423.831C561.42 394.716 539.592 373.471 512.153 358.285C492.02 347.144 471.168 337.187 450.16 327.749C421.947 315.077 393.059 303.89 364.882 291.154C345.459 282.381 327.777 270.647 312.545 255.37C263.989 206.687 280.478 126.692 336.887 98.333C369.318 82.0263 403.653 78.8745 438.809 87.2373C472.069 95.1447 494.571 115.606 505.749 148.01C508.81 156.874 510.786 166.102 513.31 175.148C515.095 181.562 516.435 188.166 518.931 194.297C523.331 205.11 531.876 210.887 543.527 211.634C564.817 212.991 579.257 196.967 576.843 174.894C574.993 157.94 567.241 143.674 556.346 131.038C540.567 112.727 520.753 99.9823 498.606 90.7812C473.718 80.4415 447.664 74.8476 420.808 73.3809ZM254.196 154.578C253.513 156.573 252.875 158.595 252.128 160.572C237.561 199.08 237.279 237.041 256.829 274.091C268.626 296.437 286.601 312.817 307.617 326.4C332.733 342.634 360.072 354.222 387.274 366.238C414.167 378.127 441.059 390.088 467.433 403.052C483.493 410.95 498.434 421.107 510.859 434.28C536.331 461.273 543.436 493.759 538.144 529.552C535.165 549.712 527.794 568.197 514.612 584.012C511.151 588.166 507.17 591.882 502.251 597.038L502.196 597.021C499.536 591.09 497.45 586.771 495.637 582.344C478.993 541.641 462.367 500.929 445.806 460.189C439.693 445.158 431.439 431.448 420.789 419.213C412.326 409.493 402.597 401.166 390.636 396.201C373.564 389.114 356.209 382.7 338.955 376.05C337.898 375.64 336.687 375.622 334.855 376.496C336.814 377.972 338.691 379.566 340.74 380.914C352.902 388.903 362.067 399.708 370.057 411.679C372.024 414.63 372.416 417.482 371.97 421.071C366.112 468.343 360.445 515.632 354.797 562.931C353.066 577.388 351.572 591.873 349.933 606.349C349.769 607.806 349.34 609.228 348.912 611.269C341.014 608.417 334.564 603.989 328.323 599.279C305.676 582.18 291.319 559.514 283.767 532.349C281.416 523.877 279.458 515.286 276.771 506.923C271.623 490.935 258.669 482.536 243.564 484.923C228.57 487.292 218.531 499.398 217.875 515.732C217.183 533.087 224.935 547.508 234.182 561.173C245.779 578.318 261.639 590.99 279.057 601.84C297.258 613.173 317.173 620.405 337.589 626.473C340.477 627.329 343.374 628.167 346.544 629.087C342.891 656.216 339.265 683.091 335.676 709.674C308.811 714.557 282.947 719.795 256.893 723.703C247.491 725.115 237.37 724.614 228.005 722.801C202.834 717.927 189.297 697.248 194.144 673.325C195.401 667.094 196.585 660.799 197.095 654.468C198.142 641.468 193.697 630.637 183.175 622.574C181.007 620.907 178.756 619.34 176.716 617.536C169.628 611.278 169.1 605.028 175.122 597.74C177.053 595.408 179.385 593.422 181.489 591.235C183.357 589.304 185.17 587.319 187.903 584.403C183.376 582.19 179.413 580.34 175.532 578.336C162.396 571.558 160.337 564.68 167.47 551.862C169.538 548.155 171.788 544.502 173.4 540.603C179.577 525.672 174.921 513.045 160.619 505.548C157.13 503.717 153.385 502.368 149.933 500.482C144.895 497.722 139.666 495.107 135.12 491.646C125.245 484.13 123.806 475.694 130.875 465.628C135.558 458.95 141.141 452.883 146.443 446.651C162.194 428.149 177.299 409.256 189.097 387.802C200.894 366.339 205.677 344.01 203.208 319.531C198.553 273.326 207.144 229.425 229.654 188.677C236.359 176.533 244.822 165.355 252.475 153.74C253.048 154.013 253.622 154.296 254.196 154.578ZM380.979 430.965C382.911 433.488 384.377 434.827 385.16 436.494C391.373 449.64 397.933 462.649 403.508 476.059C421.764 519.996 439.665 564.079 457.676 608.116C458.787 610.849 459.725 613.655 460.728 616.379L460.719 616.388C431.239 629.415 368.216 626.774 353.686 611.797C355.435 610.913 357.639 610.476 358.505 609.164C359.598 607.506 359.744 605.147 360.008 603.061C362.03 587.118 364.007 571.175 365.938 555.224C370.912 514.302 375.851 473.38 380.979 430.965Z" fill="url(#paint1_linear_13_102)" fill-opacity="0.3"/>
<defs>
<linearGradient id="paint0_linear_13_102" x1="945" y1="-73.7031" x2="-35.1136" y2="1016.98" gradientUnits="userSpaceOnUse">
<stop stop-color="#C8F59B"/>
<stop offset="0.495192" stop-color="#C9C9C9"/>
<stop offset="1" stop-color="#CBAD94"/>
</linearGradient>
<linearGradient id="paint1_linear_13_102" x1="105" y1="34.7656" x2="890.999" y2="907.798" gradientUnits="userSpaceOnUse">
<stop stop-color="#F7D5E8"/>
<stop offset="1" stop-color="#E3C5F4"/>
</linearGradient>
</defs>
</svg>
